<svg xmlns="http://www.w3.org/2000/svg" style="display: none;">
  
    <symbol id="icon-three-bars" viewBox="0 0 512 512">
      <path d="m64 96l0 64 384 0 0-64z m0 192l384 0 0-64-384 0z m0 128l384 0 0-64-384 0z"/>
    </symbol>
  
    <symbol id="icon-down-open-mini" viewBox="0 0 512 512">
      <path d="m344 195c8-9 16-9 25 0c9 7 9 15 0 24c0 0-101 98-101 98c-7 8-15 8-24 0c0 0-101-98-101-98c-9-9-9-17 0-24c9-9 17-9 26 0c0 0 87 79 87 79c0 0 88-79 88-79"/>
    </symbol>
  
    <symbol id="icon-right-open-mini" viewBox="0 0 512 512">
      <path d="m195 343c0 0 81-87 81-87c0 0-81-88-81-88c-9-9-9-17 0-25c9-9 17-9 24 0c0 0 99 100 99 100c8 9 8 17 0 25c0 0-99 100-99 100c-7 8-15 8-24 0c-9-8-9-16 0-25"/>
    </symbol>
  
    <symbol id="icon-up-open-mini" viewBox="0 0 512 512">
      <path d="m169 317c-9 8-17 8-26 0c-8-8-8-16 0-25c0 0 101-97 101-97c9-9 17-9 24 0c0 0 101 97 101 97c8 9 8 17 0 25c-9 8-17 8-26 0c0 0-87-80-87-80c0 0-87 80-87 80"/>
    </symbol>
  
    <symbol id="icon-left-open-mini" viewBox="0 0 512 512">
      <path d="m317 343c9 9 9 17 0 25c-9 8-17 8-24 0c0 0-99-100-99-100c-8-8-8-16 0-25c0 0 99-100 99-100c7-9 15-9 24 0c9 8 9 16 0 25c0 0-80 88-80 88c0 0 80 87 80 87"/>
    </symbol>
  
    <symbol id="icon-x" viewBox="0 0 512 512">
      <path d="m416 160l-64-64-96 96-96-96-64 64 96 96-96 96 64 64 96-96 96 96 64-64-96-96z"/>
    </symbol>
  
    <symbol id="icon-rocket" viewBox="0 0 512 512">
      <path d="m358 62c-36 21-74 48-109 83-22 23-40 45-55 65l-89 17-105 105 93 2 66-65c-23 48-25 80-25 80l29 29c0 0 33-3 82-27l-67 68 2 93 105-105 17-89c21-15 42-33 65-55 35-35 62-73 83-109-23-5-44-15-61-31-16-17-26-38-31-61z m35-19c3 23 10 41 22 53 13 13 31 20 54 23 33-67 43-119 43-119 0 0-52 10-119 43z"/>
    </symbol>
  
    <symbol id="icon-gist" viewBox="0 0 512 512">
      <path d="m272 192l48 48-48 48 32 32 80-80-80-80z m-208-160l0 416 384 0 0-416z m352 384l-320 0 0-352 320 0z m-176-128l-48-48 48-48-32-32-80 80 80 80z"/>
    </symbol>
  
    <symbol id="icon-dashboard" viewBox="0 0 512 512">
      <path d="m256 232c-31 0-56 25-56 56 0 31 25 56 56 56 31 0 56-25 56-56 0-4-1-8-2-12 41-48 104-122 138-164 12-14-1-28-16-16-43 35-116 97-163 138-4-1-9-2-13-2z m16-104c0-9-7-16-16-16-9 0-16 7-16 16 0 9 7 16 16 16 9 0 16-7 16-16z m96 128c0 9 7 16 16 16 9 0 16-7 16-16 0-9-7-16-16-16-9 0-16 7-16 16z m-176-128c-9 0-16 7-16 16 0 9 7 16 16 16 9 0 16-7 16-16 0-9-7-16-16-16z m-32 64c0-9-7-16-16-16-9 0-16 7-16 16 0 9 7 16 16 16 9 0 16-7 16-16z m-48 64c0 9 7 16 16 16 9 0 16-7 16-16 0-9-7-16-16-16-9 0-16 7-16 16z m224-112c0-9-7-16-16-16-9 0-16 7-16 16 0 9 7 16 16 16 9 0 16-7 16-16z m108 24l-34 45c4 14 6 28 6 43 0 88-72 160-160 160-88 0-160-72-160-160 0-88 72-160 160-160 33 0 64 10 89 27l40-30c-36-28-80-45-129-45-115 0-208 93-208 208 0 115 93 208 208 208 115 0 208-93 208-208 0-31-7-61-20-88z"/>
    </symbol>
  
    <symbol id="icon-file-text" viewBox="0 0 512 512">
      <path d="m288 128l-160 0 0 32 160 0z m64-96l-288 0 0 448 384 0 0-352z m64 416l-320 0 0-384 224 0 96 96z m-288-64l256 0 0-32-256 0z m0-64l256 0 0-32-256 0z m0-64l256 0 0-32-256 0z"/>
    </symbol>
  
    <symbol id="icon-graph" viewBox="0 0 512 512">
      <path d="m352 128l-96 0 0 320 96 0z m128 96l-96 0 0 224 96 0z m-448 256l0-64 32 0 0-32-32 0 0-64 32 0 0-32-32 0 0-64 32 0 0-32-32 0 0-64 32 0 0-32-32 0 0-64 32 0 0-32-64 0 0 512 512 0 0-32z m192-192l-96 0 0 160 96 0z"/>
    </symbol>
  
</svg>
