<svg xmlns="http://www.w3.org/2000/svg" style="display: none;">
  
    <symbol id="icon-three-bars" viewBox="0 0 512 512">
      <path d="m64 96l0 64 384 0 0-64z m0 192l384 0 0-64-384 0z m0 128l384 0 0-64-384 0z"/>
    </symbol>
  
    <symbol id="icon-down-open-mini" viewBox="0 0 512 512">
      <path d="m344 195c8-9 16-9 25 0c9 7 9 15 0 24c0 0-101 98-101 98c-7 8-15 8-24 0c0 0-101-98-101-98c-9-9-9-17 0-24c9-9 17-9 26 0c0 0 87 79 87 79c0 0 88-79 88-79"/>
    </symbol>
  
    <symbol id="icon-right-open-mini" viewBox="0 0 512 512">
      <path d="m195 343c0 0 81-87 81-87c0 0-81-88-81-88c-9-9-9-17 0-25c9-9 17-9 24 0c0 0 99 100 99 100c8 9 8 17 0 25c0 0-99 100-99 100c-7 8-15 8-24 0c-9-8-9-16 0-25"/>
    </symbol>
  
    <symbol id="icon-up-open-mini" viewBox="0 0 512 512">
      <path d="m169 317c-9 8-17 8-26 0c-8-8-8-16 0-25c0 0 101-97 101-97c9-9 17-9 24 0c0 0 101 97 101 97c8 9 8 17 0 25c-9 8-17 8-26 0c0 0-87-80-87-80c0 0-87 80-87 80"/>
    </symbol>
  
    <symbol id="icon-left-open-mini" viewBox="0 0 512 512">
      <path d="m317 343c9 9 9 17 0 25c-9 8-17 8-24 0c0 0-99-100-99-100c-8-8-8-16 0-25c0 0 99-100 99-100c7-9 15-9 24 0c9 8 9 16 0 25c0 0-80 88-80 88c0 0 80 87 80 87"/>
    </symbol>
  
    <symbol id="icon-x" viewBox="0 0 512 512">
      <path d="m416 160l-64-64-96 96-96-96-64 64 96 96-96 96 64 64 96-96 96 96 64-64-96-96z"/>
    </symbol>
  
    <symbol id="icon-rocket" viewBox="0 0 512 512">
      <path d="m358 62c-36 21-74 48-109 83-22 23-40 45-55 65l-89 17-105 105 93 2 66-65c-23 48-25 80-25 80l29 29c0 0 33-3 82-27l-67 68 2 93 105-105 17-89c21-15 42-33 65-55 35-35 62-73 83-109-23-5-44-15-61-31-16-17-26-38-31-61z m35-19c3 23 10 41 22 53 13 13 31 20 54 23 33-67 43-119 43-119 0 0-52 10-119 43z"/>
    </symbol>
  
    <symbol id="icon-gist" viewBox="0 0 512 512">
      <path d="m272 192l48 48-48 48 32 32 80-80-80-80z m-208-160l0 416 384 0 0-416z m352 384l-320 0 0-352 320 0z m-176-128l-48-48 48-48-32-32-80 80 80 80z"/>
    </symbol>
  
    <symbol id="icon-dashboard" viewBox="0 0 512 512">
      <path d="m256 232c-31 0-56 25-56 56 0 31 25 56 56 56 31 0 56-25 56-56 0-4-1-8-2-12 41-48 104-122 138-164 12-14-1-28-16-16-43 35-116 97-163 138-4-1-9-2-13-2z m16-104c0-9-7-16-16-16-9 0-16 7-16 16 0 9 7 16 16 16 9 0 16-7 16-16z m96 128c0 9 7 16 16 16 9 0 16-7 16-16 0-9-7-16-16-16-9 0-16 7-16 16z m-176-128c-9 0-16 7-16 16 0 9 7 16 16 16 9 0 16-7 16-16 0-9-7-16-16-16z m-32 64c0-9-7-16-16-16-9 0-16 7-16 16 0 9 7 16 16 16 9 0 16-7 16-16z m-48 64c0 9 7 16 16 16 9 0 16-7 16-16 0-9-7-16-16-16-9 0-16 7-16 16z m224-112c0-9-7-16-16-16-9 0-16 7-16 16 0 9 7 16 16 16 9 0 16-7 16-16z m108 24l-34 45c4 14 6 28 6 43 0 88-72 160-160 160-88 0-160-72-160-160 0-88 72-160 160-160 33 0 64 10 89 27l40-30c-36-28-80-45-129-45-115 0-208 93-208 208 0 115 93 208 208 208 115 0 208-93 208-208 0-31-7-61-20-88z"/>
    </symbol>
  
    <symbol id="icon-file-text" viewBox="0 0 512 512">
      <path d="m288 128l-160 0 0 32 160 0z m64-96l-288 0 0 448 384 0 0-352z m64 416l-320 0 0-384 224 0 96 96z m-288-64l256 0 0-32-256 0z m0-64l256 0 0-32-256 0z m0-64l256 0 0-32-256 0z"/>
    </symbol>
  
    <symbol id="icon-graph" viewBox="0 0 512 512">
      <path d="m352 128l-96 0 0 320 96 0z m128 96l-96 0 0 224 96 0z m-448 256l0-64 32 0 0-32-32 0 0-64 32 0 0-32-32 0 0-64 32 0 0-32-32 0 0-64 32 0 0-32-32 0 0-64 32 0 0-32-64 0 0 512 512 0 0-32z m192-192l-96 0 0 160 96 0z"/>
    </symbol>
  
    <symbol id="icon-telescope" viewBox="0 0 512 512">
      <path d="m62 212c16-4 114-30 114-30 0 3-1 10-1 10 0 35 25 64 64 64 40 0 64-30 64-64 0-6-4-11-9-16l24 1c0 0 4-1 16-4-26 7-54-15-63-49-9-34 4-68 30-75-12 3-16 4-16 4l-84 55c-17 5-27 23-23 40 1 5 4 9 6 12-3 6-6 13-7 20-14-1-26-10-30-23-4-17 6-35 23-39l-123 32c-17 5-27 22-22 39 4 17 20 27 36 23z m209 76l-64 0 0 32-160 160 64 0 96-64 0 64 64 0 0-64 96 64 64 0-160-160z m215-224c-9-34-35-55-61-48-35 9-49 14-93 26-26 7-40 40-31 74 9 34 37 57 63 51 43-12 58-17 93-26 25-7 38-42 29-77z m-35 45c-9 3-21-8-26-25-4-17-2-33 7-35 8-2 21 8 25 25 5 17 2 33-6 35z"/>
    </symbol>
  
    <symbol id="icon-search" viewBox="0 0 512 512">
      <path d="m493 416l-125-125c18-29 29-62 29-99 0-106-86-192-192-192-106 0-192 86-192 192 0 106 86 192 192 192 36 0 70-11 99-28l125 124c9 9 23 9 32 0l32-32c9-9 9-23 0-32z m-288-96c-71 0-128-57-128-128 0-71 57-128 128-128 70 0 128 57 128 128 0 71-58 128-128 128z"/>
    </symbol>
  
    <symbol id="icon-comment-discussion" viewBox="0 0 512 512">
      <path d="m160 256c0-32 0-96 0-96 0 0-80 0-96 0-16 0-32 16-32 32 0 16 0 144 0 160 0 16 16 32 32 32 16 0 32 0 32 0l0 96 97-96c0 0 81 0 96 0 15 0 31-16 31-32 0-16 0-32 0-32 0 0-64 0-96 0-32 0-64-32-64-64z m288-192c-16 0-208 0-224 0-16 0-32 16-32 32 0 16 0 144 0 160 0 16 16 32 32 32 16 0 95 0 95 0l97 96 0-96c0 0 16 0 32 0 16 0 32-16 32-32 0-16 0-144 0-160 0-16-16-32-32-32z"/>
    </symbol>
  
</svg>
