<svg xmlns="http://www.w3.org/2000/svg" style="display: none;">
  
    <symbol id="icon-three-bars" viewBox="0 0 512 512">
      <path d="m64 96l0 64 384 0 0-64z m0 192l384 0 0-64-384 0z m0 128l384 0 0-64-384 0z"/>
    </symbol>
  
    <symbol id="icon-down-open-mini" viewBox="0 0 512 512">
      <path d="m344 195c8-9 16-9 25 0c9 7 9 15 0 24c0 0-101 98-101 98c-7 8-15 8-24 0c0 0-101-98-101-98c-9-9-9-17 0-24c9-9 17-9 26 0c0 0 87 79 87 79c0 0 88-79 88-79"/>
    </symbol>
  
    <symbol id="icon-right-open-mini" viewBox="0 0 512 512">
      <path d="m195 343c0 0 81-87 81-87c0 0-81-88-81-88c-9-9-9-17 0-25c9-9 17-9 24 0c0 0 99 100 99 100c8 9 8 17 0 25c0 0-99 100-99 100c-7 8-15 8-24 0c-9-8-9-16 0-25"/>
    </symbol>
  
    <symbol id="icon-up-open-mini" viewBox="0 0 512 512">
      <path d="m169 317c-9 8-17 8-26 0c-8-8-8-16 0-25c0 0 101-97 101-97c9-9 17-9 24 0c0 0 101 97 101 97c8 9 8 17 0 25c-9 8-17 8-26 0c0 0-87-80-87-80c0 0-87 80-87 80"/>
    </symbol>
  
    <symbol id="icon-left-open-mini" viewBox="0 0 512 512">
      <path d="m317 343c9 9 9 17 0 25c-9 8-17 8-24 0c0 0-99-100-99-100c-8-8-8-16 0-25c0 0 99-100 99-100c7-9 15-9 24 0c9 8 9 16 0 25c0 0-80 88-80 88c0 0 80 87 80 87"/>
    </symbol>
  
</svg>
