<?xml version="1.0" encoding="utf-8"?>
<!-- Generator: Adobe Illustrator 22.1.0, SVG Export Plug-In . SVG Version: 6.00 Build 0)  -->
<svg version="1.1" id="Layer_1" xmlns="http://www.w3.org/2000/svg" xmlns:xlink="http://www.w3.org/1999/xlink" x="0px" y="0px"
	 viewBox="0 0 43.2 316" style="enable-background:new 0 0 43.2 316;" xml:space="preserve">
<style type="text/css">
	.st0{fill:#233147;}
</style>
<g>
	<path class="st0" d="M18.7,123.4L6.3,152.7h6.5l0-0.1l0.1,0.1l14.2-8.1l0.6,1.6l2.7,6.5h6.7l-12.5-29.3H18.7z M16.5,143.7l1.3-3.2
		l3.9-9.4l3.2,7.8L16.5,143.7z"/>
	<polygon class="st0" points="17.6,6.8 11.2,6.8 11.2,35.9 32.1,35.9 32.1,30.1 17.6,30.1 	"/>
	<polygon class="st0" points="17,84.4 30.7,84.4 30.7,78.7 17,78.7 17,72.8 32.6,72.8 32.6,67.1 10.6,67.1 10.6,96.2 32.8,96.2 
		32.8,90.5 17,90.5 	"/>
	<path class="st0" d="M22.9,195.7h6.4v4.2c-1.6,1.2-3.7,1.8-6,1.8c-5.2,0-8.8-3.9-8.8-9.2v-0.1c0-4.9,3.7-9.1,8.4-9.1
		c3.4,0,5.4,1.1,7.6,3l4-4.9c-3-2.6-6.2-4-11.4-4c-8.8,0-15.3,6.8-15.3,15.1v0.1c0,8.6,6.2,15,15.3,15c5.3,0,9.4-2.1,12.4-4.6v-12.6
		H22.9V195.7z"/>
	<path class="st0" d="M28,246.8c0,4.6-2.4,7-6.3,7c-3.9,0-6.3-2.5-6.3-7.2v-16.5H9v16.6c0,8.6,4.8,12.9,12.6,12.9
		c7.8,0,12.8-4.3,12.8-13.1v-16.4H28V246.8z"/>
	<polygon class="st0" points="17,305.3 17,299.2 30.7,299.2 30.7,293.5 17,293.5 17,287.6 32.6,287.6 32.6,281.9 10.6,281.9 
		10.6,311 32.8,311 32.8,305.3 	"/>
</g>
</svg>
