<?xml version="1.0" encoding="utf-8"?>
<!-- Generator: Adobe Illustrator 22.1.0, SVG Export Plug-In . SVG Version: 6.00 Build 0)  -->
<svg version="1.1" id="Layer_1" xmlns="http://www.w3.org/2000/svg" xmlns:xlink="http://www.w3.org/1999/xlink" x="0px" y="0px"
	 viewBox="0 0 329 376" style="enable-background:new 0 0 329 376;" xml:space="preserve">
<style type="text/css">
	.st0{fill:none;stroke:#FFFAF0;stroke-width:9;stroke-miterlimit:10;}
	.st1{fill:#FFFAF0;stroke:#FFFAF0;stroke-width:2;stroke-miterlimit:10;}
	.st2{fill:#FFFAF0;}
</style>
<polygon class="st0" points="7.8,98.2 164.6,7.7 321.3,98.2 321.3,279.2 164.6,369.7 7.8,279.2 "/>
<line class="st1" x1="7.8" y1="188.7" x2="242.9" y2="324.4"/>
<line class="st1" x1="86.2" y1="53" x2="242.9" y2="143.5"/>
<line class="st1" x1="320.4" y1="98.7" x2="10.1" y2="277.9"/>
<line class="st1" x1="242.9" y1="52.9" x2="7.8" y2="188.7"/>
<g>
	<path class="st2" d="M68.2,467.3h15.3v-6.4H68.2v-6.6h17.4V448H61.1v32.5h24.7v-6.4H68.2V467.3z M14.9,448H7.8v32.5h23.3V474H14.9
		V448z M303.7,474.1v-6.8H319v-6.4h-15.3v-6.6h17.4V448h-24.5v32.5h24.7v-6.4H303.7z M127.9,447.7L114,480.4h7.3l0.1-0.1l0.1,0.1
		l15.9-9.1l0.7,1.8l3,7.3h7.5l-13.9-32.7H127.9z M125.4,470.4l1.4-3.5l4.3-10.5l3.6,8.7L125.4,470.4z M257.6,466.6
		c0,5.2-2.6,7.8-7,7.8c-4.4,0-7-2.7-7-8V448h-7.1v18.6c0,9.6,5.3,14.4,14.1,14.4c8.7,0,14.2-4.8,14.2-14.7V448h-7.1V466.6z
		 M191.3,467.9h7.2v4.6c-1.8,1.3-4.1,2-6.7,2c-5.8,0-9.8-4.4-9.8-10.3v-0.1c0-5.5,4.1-10.1,9.3-10.1c3.8,0,6,1.2,8.5,3.3l4.5-5.4
		c-3.4-2.9-6.9-4.5-12.8-4.5c-9.8,0-17,7.6-17,16.8v0.1c0,9.6,7,16.7,17.1,16.7c5.9,0,10.5-2.3,13.9-5.1v-14.1h-14.1V467.9z"/>
</g>
</svg>
