<?xml version="1.0" encoding="utf-8"?>
<!-- Generator: Adobe Illustrator 22.1.0, SVG Export Plug-In . SVG Version: 6.00 Build 0)  -->
<svg version="1.1" id="Layer_1" xmlns="http://www.w3.org/2000/svg" xmlns:xlink="http://www.w3.org/1999/xlink" x="0px" y="0px"
	 viewBox="0 0 329 36" style="enable-background:new 0 0 329 36;" xml:space="preserve">
<style type="text/css">
	.st0{fill:none;stroke:#FFFAF0;stroke-width:9;stroke-miterlimit:10;}
	.st1{fill:#FFFAF0;stroke:#FFFAF0;stroke-width:2;stroke-miterlimit:10;}
	.st2{fill:#FFFAF0;}
</style>
<polygon class="st0" points="7.8,-346.8 164.6,-437.3 321.3,-346.8 321.3,-165.8 164.6,-75.3 7.8,-165.8 "/>
<line class="st1" x1="7.8" y1="-256.3" x2="242.9" y2="-120.6"/>
<line class="st1" x1="86.2" y1="-392" x2="242.9" y2="-301.5"/>
<line class="st1" x1="320.4" y1="-346.3" x2="10.1" y2="-167.1"/>
<line class="st1" x1="242.9" y1="-392.1" x2="7.8" y2="-256.3"/>
<g>
	<path class="st2" d="M68.2,22.3h15.3v-6.4H68.2V9.3h17.4V3H61.1v32.5h24.7v-6.4H68.2V22.3z M14.9,3H7.8v32.5h23.3V29H14.9V3z
		 M303.7,29.1v-6.8H319v-6.4h-15.3V9.3h17.4V3h-24.5v32.5h24.7v-6.4H303.7z M127.9,2.7L114,35.4h7.3l0.1-0.1l0.1,0.1l15.9-9.1
		l0.7,1.8l3,7.3h7.5L134.5,2.7H127.9z M125.4,25.4l1.4-3.5l4.3-10.5l3.6,8.7L125.4,25.4z M257.6,21.6c0,5.2-2.6,7.8-7,7.8
		c-4.4,0-7-2.7-7-8V3h-7.1v18.6c0,9.6,5.3,14.4,14.1,14.4c8.7,0,14.2-4.8,14.2-14.7V3h-7.1V21.6z M191.3,22.9h7.2v4.6
		c-1.8,1.3-4.1,2-6.7,2c-5.8,0-9.8-4.4-9.8-10.3v-0.1c0-5.5,4.1-10.1,9.3-10.1c3.8,0,6,1.2,8.5,3.3l4.5-5.4
		c-3.4-2.9-6.9-4.5-12.8-4.5c-9.8,0-17,7.6-17,16.8v0.1c0,9.6,7,16.7,17.1,16.7c5.9,0,10.5-2.3,13.9-5.1V16.8h-14.1V22.9z"/>
</g>
</svg>
