<?xml version="1.0" encoding="utf-8"?>
<!-- Generator: Adobe Illustrator 22.1.0, SVG Export Plug-In . SVG Version: 6.00 Build 0)  -->
<svg version="1.1" id="Layer_1" xmlns="http://www.w3.org/2000/svg" xmlns:xlink="http://www.w3.org/1999/xlink" x="0px" y="0px"
	 viewBox="0 0 320.4 42" style="enable-background:new 0 0 320.4 42;" xml:space="preserve">
<style type="text/css">
	.st0{fill:#0E1D35;}
</style>
<g>
	<path class="st0" d="M63.4,24.3h15.3v-6.4H63.4v-6.6h17.4V5H56.3v32.5H81v-6.4H63.4V24.3z M10.1,5H3v32.5h23.3V31H10.1V5z
		 M298.9,31.1v-6.8h15.3v-6.4h-15.3v-6.6h17.4V5h-24.5v32.5h24.7v-6.4H298.9z M123.1,4.7l-13.9,32.7h7.3l0.1-0.1l0.1,0.1l15.9-9.1
		l0.7,1.8l3,7.3h7.5L129.7,4.7H123.1z M120.6,27.4l1.4-3.5l4.3-10.5l3.6,8.7L120.6,27.4z M252.8,23.6c0,5.2-2.6,7.8-7,7.8
		c-4.4,0-7-2.7-7-8V5h-7.1v18.6c0,9.6,5.3,14.4,14.1,14.4c8.7,0,14.2-4.8,14.2-14.7V5h-7.1V23.6z M186.5,24.9h7.2v4.6
		c-1.8,1.3-4.1,2-6.7,2c-5.8,0-9.8-4.4-9.8-10.3v-0.1c0-5.5,4.1-10.1,9.3-10.1c3.8,0,6,1.2,8.5,3.3l4.5-5.4
		c-3.4-2.9-6.9-4.5-12.8-4.5c-9.8,0-17,7.6-17,16.8v0.1c0,9.6,7,16.7,17.1,16.7c5.9,0,10.5-2.3,13.9-5.1V18.8h-14.1V24.9z"/>
</g>
</svg>
